HIERARCHY
ROOT Hips
{
	OFFSET 0.000000 88.474243 0.000000
	CHANNELS 6 Xposition Yposition Zposition Zrotation Yrotation Xrotation 
	JOINT Hips_Spine
	{
		OFFSET 0.000000 0.000000 0.000000
		CHANNELS 3 Zrotation Yrotation Xrotation
		JOINT Spine
		{
			OFFSET 0.005100 8.711998 -0.691000
			CHANNELS 3 Zrotation Yrotation Xrotation
			JOINT Spine1
			{
				OFFSET -0.009200 8.660301 -1.275000
				CHANNELS 3 Zrotation Yrotation Xrotation
				JOINT Spine2
				{
					OFFSET 0.006300 9.852501 -1.857000
					CHANNELS 3 Zrotation Yrotation Xrotation
					JOINT Spine2_Neck
					{
						OFFSET 0.000000 0.000000 0.000000
						CHANNELS 3 Zrotation Yrotation Xrotation
						JOINT Neck
						{
							OFFSET 0.016300 11.420799 -0.263300
							CHANNELS 3 Zrotation Yrotation Xrotation
							End Site #name: Head
							{
								OFFSET -0.019200 9.262405 2.362500
							}
						}
					}
					JOINT Spine2_LeftShoulder
					{
						OFFSET 0.000000 0.000000 0.000000
						CHANNELS 3 Zrotation Yrotation Xrotation
						JOINT LeftShoulder
						{
							OFFSET 5.616900 6.732201 -0.345700
							CHANNELS 3 Zrotation Yrotation Xrotation
							JOINT LeftArm
							{
								OFFSET 10.664888 -0.183372 -2.440700
								CHANNELS 3 Zrotation Yrotation Xrotation
								JOINT LeftForeArm
								{
									OFFSET 27.459126 0.000000 0.000000
									CHANNELS 3 Zrotation Yrotation Xrotation
									End Site #name: LeftHand
									{
										OFFSET 21.306858 0.000000 0.000000
									}
								}
							}
						}
					}
					JOINT Spine2_RightShoulder
					{
						OFFSET 0.000000 0.000000 0.000000
						CHANNELS 3 Zrotation Yrotation Xrotation
						JOINT RightShoulder
						{
							OFFSET -5.580300 6.737503 -0.344400
							CHANNELS 3 Zrotation Yrotation Xrotation
							JOINT RightArm
							{
								OFFSET -10.679335 -0.188484 -2.383900
								CHANNELS 3 Zrotation Yrotation Xrotation
								JOINT RightForeArm
								{
									OFFSET -27.503529 0.000000 0.000000
									CHANNELS 3 Zrotation Yrotation Xrotation
									End Site #name: RightHand
									{
										OFFSET -21.306808 0.000000 0.000000
									}
								}
							}
						}
					}
				}
			}
		}
	}
	JOINT Hips_LeftUpLeg
	{
		OFFSET 0.000000 0.000000 0.000000
		CHANNELS 3 Zrotation Yrotation Xrotation
		JOINT LeftUpLeg
		{
			OFFSET 6.857700 -6.739601 0.312100
			CHANNELS 3 Zrotation Yrotation Xrotation
			JOINT LeftLeg
			{
				OFFSET -0.367590 -34.731552 -4.572400
				CHANNELS 3 Zrotation Yrotation Xrotation
				End Site #name: LeftFoot
				{
					OFFSET 0.367590 -34.656704 -6.067400
				}
			}
		}
	}
	JOINT Hips_RightUpLeg
	{
		OFFSET 0.000000 0.000000 0.000000
		CHANNELS 3 Zrotation Yrotation Xrotation
		JOINT RightUpLeg
		{
			OFFSET -6.876100 -6.733299 0.301000
			CHANNELS 3 Zrotation Yrotation Xrotation
			JOINT RightLeg
			{
				OFFSET 0.347353 -34.795158 -4.515900
				CHANNELS 3 Zrotation Yrotation Xrotation
				End Site #name: RightFoot
				{
					OFFSET -0.347353 -34.589367 -6.070300
				}
			}
		}
	}
}
MOTION
Frames: 10
Frame Time: 0.041667
0.017663 -0.028998 -0.095045 175.772532 12.017734 -178.238716 -0.000000 -0.000000 0.000000 -2.810420 2.765970 -2.417701 0.546272 -0.266174 0.058880 0.000000 0.000000 0.000000 -0.062790 -0.685048 -3.644824 -2.576914 -8.497819 0.543175 0.176331 0.039485 -1.652885 -3.182457 -7.345559 1.430426 -77.628485 -7.438305 9.954926 2.572989 -22.866262 5.378659 0.028206 -0.307511 -2.937733 16.635783 10.781916 4.529897 54.339228 10.826871 -4.914992 -4.547484 62.862750 0.439119 0.000000 -0.000000 -0.000000 -6.043797 14.544230 -15.947736 -6.870683 -31.870507 -0.236382 0.000000 -0.000000 -0.000000 -8.468132 -32.466685 -11.574532 -12.680641 -8.494754 16.552703 
-0.303979 -0.212599 -0.237017 175.205351 25.633271 -178.277240 -0.000000 -0.000000 0.000000 -4.861192 1.780026 -0.864930 0.644369 -0.441925 -1.260060 0.000000 0.000000 0.000000 0.778384 -0.539534 -3.795322 -1.184240 -18.100390 1.477471 0.235495 -0.382013 -2.614805 -1.422162 -8.851581 1.390391 -81.697903 -16.155704 5.107892 0.025693 -18.625062 2.951621 0.562828 -0.672348 -2.016408 21.364191 12.142798 3.571978 53.252820 13.047794 -7.817342 -2.717609 44.773993 1.758198 0.000000 -0.000000 -0.000000 -4.875852 15.016830 -14.924862 -4.449810 -30.411549 -6.106330 -0.000000 -0.000000 -0.000000 -9.704512 -41.676095 -10.290982 -9.467754 -4.429207 15.995672 
-0.485871 -0.325050 -0.342166 175.395078 14.434637 -178.330327 -0.000000 -0.000000 0.000000 -6.029716 -0.283993 0.068373 0.967936 -0.562294 -2.127265 0.000000 0.000000 0.000000 1.177258 -0.702438 -3.819176 -3.276653 -27.654427 3.028038 0.291660 -0.287028 -3.183616 -0.365288 -7.817155 0.615042 -81.972013 -17.559161 -0.237559 1.492924 -11.643047 4.474126 0.829422 -0.868838 -3.188370 22.185969 13.929368 4.330831 52.695851 16.115052 -3.336632 -2.563936 38.677671 3.230730 0.000000 -0.000000 -0.000000 -4.155931 16.006720 -14.150812 -3.240195 -30.413137 -8.215463 -0.000000 -0.000000 -0.000000 -10.659380 -48.713649 -7.642602 -9.026760 -4.385693 16.296326 
-0.451624 -0.394916 -0.414168 176.187894 3.667345 -178.510245 -0.000000 -0.000000 0.000000 -5.879052 -1.507539 0.934040 0.719552 -1.022434 -2.483651 0.000000 0.000000 0.000000 1.030610 -0.988800 -3.337744 -4.436941 -31.455544 3.832164 0.156997 -0.518827 -3.300451 -0.505820 -6.893247 0.199046 -82.647067 -19.349826 -1.190231 3.783909 -8.984786 7.121034 0.754850 -1.301676 -3.026579 20.120633 13.116927 4.119238 53.134763 18.331551 -1.075558 -1.592742 39.762411 3.971504 0.000000 -0.000000 -0.000000 -3.534757 16.276709 -12.811401 -2.373270 -31.174371 -9.503460 -0.000000 -0.000000 -0.000000 -11.923260 -55.296957 -5.932461 -8.994370 -3.950257 16.761580 
-0.327339 -0.415190 -0.514246 176.165307 -4.023954 -178.689355 -0.000000 -0.000000 0.000000 -5.392404 -1.569556 1.566514 0.490996 -1.296010 -2.257019 0.000000 0.000000 0.000000 0.844944 -1.166513 -2.338794 -3.811374 -32.464126 3.468134 -0.081461 -0.766161 -2.977458 -0.839570 -6.504102 0.015241 -83.008033 -20.759460 -0.192360 6.112025 -8.340139 10.116535 0.490627 -1.578841 -2.305469 17.758232 12.107879 3.668517 54.186743 19.177434 2.284487 -0.879864 41.977667 4.022618 0.000000 -0.000000 -0.000000 -3.216023 16.593483 -11.867543 -1.937891 -32.530218 -10.306433 -0.000000 -0.000000 -0.000000 -12.591874 -59.338019 -5.200950 -9.356991 -3.749097 16.984890 
-0.195558 -0.408686 -0.651515 175.778208 -9.181577 -178.679033 -0.000000 -0.000000 0.000000 -4.654021 -0.833991 2.199004 0.271378 -1.397932 -1.461146 0.000000 0.000000 0.000000 0.659111 -1.195214 -1.080439 -3.185336 -31.379839 2.749537 -0.239453 -0.847612 -2.319860 -0.986019 -6.325282 -0.050669 -83.063669 -20.871168 1.583954 8.014538 -9.012059 12.417021 0.224048 -1.712666 -1.230196 16.148770 11.303827 3.191031 55.492238 18.471971 5.800909 0.208930 43.666896 4.646507 0.000000 -0.000000 -0.000000 -3.181556 16.369268 -11.533770 -1.700265 -33.500786 -10.992971 -0.000000 -0.000000 -0.000000 -12.720776 -61.615445 -5.154580 -10.062161 -4.490322 16.907104 
-0.061973 -0.388455 -0.806717 175.134228 -12.012754 -178.541596 -0.000000 -0.000000 0.000000 -4.239034 0.362286 2.780668 0.036877 -1.357420 -0.391884 0.000000 0.000000 0.000000 0.480129 -1.126310 0.261677 -2.632942 -29.304084 2.058994 -0.339831 -0.833395 -1.553164 -0.903853 -6.350914 -0.045794 -83.256526 -20.740089 4.469205 9.125912 -10.768825 13.520544 0.052189 -1.687787 -0.834113 15.341520 10.941852 2.757712 56.403615 16.472829 8.500910 1.908846 43.079225 6.308717 0.000000 -0.000000 -0.000000 -3.320251 15.819979 -11.577433 -1.566456 -34.257852 -11.681169 -0.000000 -0.000000 -0.000000 -12.739086 -63.215102 -5.319467 -10.790348 -5.935839 16.369765 
0.068268 -0.369608 -0.966276 174.546724 -13.972634 -178.312054 -0.000000 -0.000000 0.000000 -4.237387 1.592039 3.396335 -0.172535 -1.284486 0.522591 0.000000 0.000000 0.000000 0.285293 -1.026876 1.483422 -2.291166 -27.199323 1.511727 -0.427676 -0.752731 -0.841535 -0.718245 -6.509380 0.033138 -83.220629 -20.493304 7.181863 9.629880 -13.689293 13.502318 -0.106625 -1.627988 -0.429138 15.034001 10.823650 2.462043 56.782203 14.807624 10.482676 3.580784 41.141432 8.430936 0.000000 0.000000 -0.000000 -3.431980 15.278266 -11.698416 -1.464503 -34.756542 -12.271554 -0.000000 -0.000000 -0.000000 -12.630667 -64.219281 -5.761507 -11.375771 -7.336057 15.890028 
0.193975 -0.350719 -1.119688 174.082645 -16.078775 -178.123436 -0.000000 -0.000000 0.000000 -4.473122 2.422072 3.926645 -0.338808 -1.211454 1.222770 0.000000 0.000000 0.000000 0.074997 -0.942541 2.282182 -2.132979 -25.454116 1.065627 -0.531203 -0.671998 -0.313004 -0.390900 -6.639773 0.124164 -82.668632 -19.990940 8.592849 9.650973 -17.892118 12.579104 -0.270697 -1.605446 -0.073308 14.991940 10.581377 2.265753 56.951773 14.150685 11.492961 5.538457 38.117700 10.546391 0.000000 0.000000 -0.000000 -3.442023 14.845542 -11.627000 -1.382670 -35.139670 -12.731012 -0.000000 -0.000000 -0.000000 -12.508546 -64.648733 -6.133846 -11.499010 -8.152808 15.437257 
0.311942 -0.330993 -1.270694 173.758991 -18.661842 -178.014376 -0.000000 -0.000000 0.000000 -4.809218 2.800688 4.257170 -0.503596 -1.169419 1.672980 0.000000 0.000000 0.000000 -0.099743 -0.891551 2.696206 -2.113702 -24.405947 0.852972 -0.642770 -0.646653 -0.023486 0.026428 -6.861779 0.256901 -82.123872 -19.445662 8.924016 9.678733 -21.919971 11.213212 -0.454250 -1.611779 0.099638 15.068711 10.051822 2.090879 57.129400 14.122193 11.707519 7.398481 35.910207 12.194262 0.000000 0.000000 -0.000000 -3.375379 14.588473 -11.328280 -1.322071 -35.483430 -13.028008 -0.000000 -0.000000 -0.000000 -12.413259 -64.439431 -6.354578 -11.728034 -8.995777 15.177995 
